<?xml version="1.0" encoding="UTF-8" ?>
<!DOCTYPE svg PUBLIC "-//W3C//DTD SVG 1.1//EN" "http://www.w3.org/Graphics/SVG/1.1/DTD/svg11.dtd">
<svg width="627pt" height="165pt" viewBox="0 0 627 165" version="1.1" xmlns="http://www.w3.org/2000/svg">
<g id="#000000ff">
<path fill="#000000" opacity="1.00" d=" M 133.28 39.23 C 142.78 32.33 155.95 33.05 166.24 37.74 C 164.93 43.01 163.70 48.30 162.42 53.57 C 157.84 51.21 152.19 48.97 147.14 51.20 C 143.19 52.89 142.13 58.75 145.43 61.60 C 150.26 66.26 157.06 68.35 161.58 73.42 C 170.94 82.39 171.25 98.95 162.29 108.28 C 155.97 114.58 146.54 116.47 137.91 115.91 C 132.45 115.47 126.84 114.42 122.16 111.41 C 123.57 106.15 124.84 100.86 126.15 95.58 C 131.53 98.45 137.71 100.65 143.87 99.47 C 146.85 98.89 149.22 96.09 149.03 93.01 C 149.23 88.13 144.63 85.20 140.97 82.96 C 134.57 79.38 128.16 74.72 125.30 67.69 C 121.54 57.87 124.62 45.47 133.28 39.23 Z" />
<path fill="#000000" opacity="1.00" d=" M 198.37 44.70 C 202.84 38.45 210.06 33.77 217.97 34.21 C 225.18 33.85 232.42 37.97 235.11 44.81 C 238.19 40.31 242.45 36.31 247.89 35.01 C 254.59 33.30 262.74 33.91 267.70 39.27 C 273.66 45.52 274.62 54.69 274.97 62.92 C 275.04 80.28 274.98 97.64 275.00 115.00 C 267.83 115.00 260.66 115.02 253.49 114.99 C 253.51 98.33 253.48 81.68 253.51 65.03 C 253.42 61.29 253.16 57.24 250.94 54.09 C 248.58 51.01 243.55 51.44 241.13 54.22 C 238.27 57.42 237.75 61.89 237.74 66.01 C 237.75 82.34 237.74 98.66 237.75 114.99 C 230.67 115.00 223.58 115.01 216.49 114.99 C 216.50 97.98 216.51 80.98 216.49 63.98 C 216.32 60.37 216.19 56.20 213.43 53.51 C 211.13 51.18 207.03 51.55 204.79 53.78 C 201.65 56.58 200.63 60.98 200.73 65.03 C 200.77 81.69 200.73 98.34 200.75 114.99 C 193.58 115.01 186.42 115.01 179.25 114.99 C 179.05 88.50 179.74 61.99 178.72 35.50 C 184.95 35.49 191.18 35.51 197.41 35.49 C 197.78 38.55 198.10 41.62 198.37 44.70 Z" />
<path fill="#000000" opacity="1.00" d=" M 290.18 40.14 C 299.84 35.01 311.16 33.24 321.97 34.68 C 328.95 35.68 335.78 39.55 339.07 45.97 C 343.95 55.19 343.20 65.95 343.25 76.04 C 343.54 89.02 342.40 102.12 344.51 115.01 C 338.04 114.99 331.58 115.00 325.11 115.00 C 324.74 112.41 324.36 109.82 323.99 107.22 C 317.26 117.51 301.04 119.57 292.33 110.73 C 281.35 99.48 283.17 78.29 296.45 69.54 C 303.74 64.48 312.78 62.43 321.56 62.45 C 322.01 57.71 319.93 52.25 314.98 50.83 C 307.88 49.01 300.33 51.14 294.13 54.75 C 292.87 49.86 291.49 45.01 290.18 40.14 M 308.94 80.88 C 305.18 84.65 304.77 90.76 306.64 95.53 C 307.77 98.42 310.71 100.94 313.96 100.45 C 318.25 100.01 321.65 96.18 322.07 91.97 C 322.50 86.79 322.14 81.59 322.24 76.40 C 317.54 76.61 312.48 77.51 308.94 80.88 Z" />
<path fill="#000000" opacity="1.00" d=" M 388.18 35.17 C 391.16 33.80 394.52 34.30 397.69 34.31 C 397.82 41.43 397.70 48.55 397.77 55.67 C 394.46 55.44 390.92 55.15 387.93 56.88 C 382.07 59.85 379.52 66.76 379.54 73.01 C 379.45 87.00 379.52 100.99 379.51 114.98 C 372.26 115.02 365.00 115.00 357.75 114.99 C 357.48 88.50 358.33 61.99 357.20 35.52 C 363.44 35.47 369.68 35.52 375.92 35.48 C 376.35 39.40 376.75 43.33 377.10 47.26 C 379.42 42.25 382.89 37.32 388.18 35.17 Z" />
</g>
<g id="#f18800ff">
<path fill="#f18800" opacity="1.00" d=" M 424.71 44.53 C 427.81 38.54 434.04 34.07 440.95 34.22 C 448.74 33.60 456.07 38.38 459.80 45.03 C 465.27 54.69 466.36 66.12 466.26 77.02 C 465.98 87.65 464.13 98.91 457.46 107.54 C 452.85 113.75 444.72 117.53 437.00 115.95 C 432.74 115.06 429.32 112.01 426.97 108.47 C 427.04 121.06 426.98 133.66 427.00 146.25 C 419.83 146.25 412.67 146.25 405.51 146.25 C 405.49 115.18 405.50 84.11 405.50 53.04 C 405.37 47.19 405.04 41.35 404.97 35.50 C 411.19 35.49 417.41 35.53 423.63 35.47 C 424.00 38.49 424.39 41.51 424.71 44.53 M 433.39 52.56 C 428.81 54.17 427.31 59.57 427.02 63.94 C 427.03 72.01 426.86 80.10 427.11 88.17 C 427.56 92.61 429.72 98.43 434.91 98.78 C 440.08 98.44 442.50 92.97 443.46 88.57 C 445.30 79.15 445.45 69.18 442.86 59.90 C 441.78 55.86 438.10 51.00 433.39 52.56 Z" />
<path fill="#f18800" opacity="1.00" d=" M 478.79 40.06 C 488.94 34.91 500.79 32.94 512.02 34.96 C 519.09 36.21 525.56 40.87 528.40 47.56 C 532.74 57.11 531.59 67.86 531.75 78.05 C 531.92 90.37 531.10 102.77 533.04 115.00 C 526.58 115.00 520.11 115.00 513.65 115.00 C 513.28 112.41 512.91 109.82 512.60 107.22 C 508.88 112.16 503.29 115.89 496.99 116.20 C 489.53 117.09 481.78 113.43 477.87 107.00 C 471.37 96.46 472.47 81.30 481.46 72.50 C 489.00 65.26 499.81 62.45 510.04 62.46 C 510.65 57.66 508.40 52.13 503.38 50.80 C 496.35 49.10 488.84 51.09 482.73 54.74 C 481.43 49.84 480.00 44.98 478.79 40.06 M 497.65 80.72 C 493.74 84.54 493.35 90.84 495.27 95.71 C 496.53 99.04 500.41 101.44 503.91 100.15 C 507.97 99.07 510.62 94.98 510.73 90.90 C 510.82 86.07 510.71 81.24 510.74 76.41 C 506.13 76.62 501.17 77.50 497.65 80.72 Z" />
<path fill="#f18800" opacity="1.00" d=" M 537.62 35.52 C 545.35 35.50 553.09 35.45 560.83 35.55 C 564.01 53.73 568.08 71.75 570.63 90.04 C 573.56 71.86 576.41 53.67 579.33 35.49 C 586.34 35.52 593.35 35.48 600.36 35.52 C 594.43 58.10 588.46 80.67 582.39 103.22 C 578.46 116.34 573.78 129.97 564.05 140.01 C 559.51 144.31 554.23 148.01 548.23 149.92 C 546.05 143.76 543.89 137.59 541.68 131.44 C 549.92 128.00 557.15 121.39 559.92 112.74 C 560.23 111.34 559.60 109.99 559.29 108.66 C 552.00 84.30 544.85 59.90 537.62 35.52 Z" />
</g>
<g id="#c11718ff">
<path fill="#c11718" opacity="1.00" d=" M 34.29 35.22 C 35.77 34.52 37.42 34.50 39.02 34.48 C 59.34 34.52 79.66 34.50 99.98 34.49 C 104.48 34.30 108.85 37.65 109.75 42.07 C 110.19 44.70 109.97 47.37 110.01 50.02 C 109.99 68.72 110.01 87.41 110.00 106.10 C 110.36 111.56 105.49 116.55 100.02 116.26 C 79.36 116.23 58.70 116.26 38.04 116.24 C 32.94 116.48 28.23 112.02 28.27 106.90 C 28.24 85.92 28.24 64.93 28.27 43.94 C 28.24 40.14 30.77 36.58 34.29 35.22 M 62.54 49.12 C 62.41 55.66 62.55 62.21 62.49 68.75 C 56.33 68.77 50.17 68.72 44.01 68.75 C 41.10 68.59 37.84 70.11 36.97 73.07 C 35.30 76.96 38.42 81.96 42.71 81.95 C 49.31 82.11 55.91 81.93 62.50 82.01 C 62.57 88.66 62.36 95.31 62.58 101.96 C 62.63 104.89 65.05 107.36 67.88 107.82 C 71.60 108.62 75.53 105.69 75.66 101.86 C 75.90 95.24 75.67 88.62 75.75 82.00 C 82.19 81.96 88.63 82.07 95.07 81.98 C 98.06 82.00 100.96 79.84 101.49 76.85 C 102.39 73.26 99.81 69.20 96.03 68.88 C 89.29 68.55 82.51 68.85 75.76 68.75 C 75.71 62.47 75.80 56.19 75.73 49.92 C 75.77 47.16 74.33 44.17 71.55 43.30 C 67.59 41.51 62.42 44.70 62.54 49.12 Z" />
</g>
<g id="#ffffffff">
<path fill="#ffffff" opacity="1.00" d=" M 62.54 49.12 C 62.42 44.70 67.59 41.51 71.55 43.30 C 74.33 44.17 75.77 47.16 75.73 49.92 C 75.80 56.19 75.71 62.47 75.76 68.75 C 82.51 68.85 89.29 68.55 96.03 68.88 C 99.81 69.20 102.39 73.26 101.49 76.85 C 100.96 79.84 98.06 82.00 95.07 81.98 C 88.63 82.07 82.19 81.96 75.75 82.00 C 75.67 88.62 75.90 95.24 75.66 101.86 C 75.53 105.69 71.60 108.62 67.88 107.82 C 65.05 107.36 62.63 104.89 62.58 101.96 C 62.36 95.31 62.57 88.66 62.50 82.01 C 55.91 81.93 49.31 82.11 42.71 81.95 C 38.42 81.96 35.30 76.96 36.97 73.07 C 37.84 70.11 41.10 68.59 44.01 68.75 C 50.17 68.72 56.33 68.77 62.49 68.75 C 62.55 62.21 62.41 55.66 62.54 49.12 Z" />
</g>
</svg>
