<?xml version="1.0" encoding="UTF-8" ?>
<!DOCTYPE svg PUBLIC "-//W3C//DTD SVG 1.1//EN" "http://www.w3.org/Graphics/SVG/1.1/DTD/svg11.dtd">
<svg width="512pt" height="512pt" viewBox="0 0 512 512" version="1.1" xmlns="http://www.w3.org/2000/svg">
<g id="#000000fe">
<path fill="#000000" opacity="1.00" d=" M 129.30 13.30 C 132.82 12.65 136.43 12.99 140.00 12.93 C 220.02 12.95 300.05 12.93 380.07 12.94 C 382.71 12.85 385.54 13.59 387.21 15.79 C 389.28 17.99 389.02 21.19 389.09 23.98 C 388.97 36.67 389.19 49.37 388.99 62.06 C 389.11 65.91 385.89 69.61 381.98 69.74 C 377.26 69.98 372.52 69.75 367.79 69.86 C 367.57 80.23 367.85 90.59 367.68 100.96 C 367.83 104.33 365.36 107.65 361.96 108.15 C 358.64 108.60 355.28 108.36 351.95 108.33 C 351.80 110.55 351.72 112.77 351.71 115.00 C 351.80 211.42 351.64 307.85 351.79 404.27 C 355.12 404.36 358.47 404.18 361.79 404.53 C 365.33 404.93 367.93 408.47 367.70 411.96 C 367.84 422.24 367.53 432.53 367.83 442.81 C 372.55 442.86 377.28 442.60 381.99 442.93 C 386.04 443.12 389.23 446.95 389.02 450.94 C 389.17 463.29 388.98 475.65 389.09 488.01 C 388.99 491.08 389.42 494.70 387.07 497.11 C 385.38 499.18 382.64 499.85 380.07 499.75 C 299.05 499.74 218.03 499.71 137.01 499.76 C 133.42 499.58 129.13 500.52 126.29 497.72 C 124.00 495.87 123.50 492.80 123.61 490.03 C 123.68 477.00 123.56 463.98 123.66 450.96 C 123.45 446.86 126.83 443.01 130.96 442.88 C 135.60 442.64 140.26 442.85 144.90 442.81 C 145.07 432.52 144.82 422.23 145.00 411.94 C 144.78 408.37 147.55 404.78 151.18 404.50 C 154.42 404.20 157.67 404.34 160.92 404.27 C 160.88 305.62 161.03 206.98 160.84 108.33 C 157.57 108.38 154.27 108.57 151.01 108.20 C 147.55 107.79 144.88 104.52 145.03 101.06 C 144.79 90.67 145.06 80.28 144.92 69.89 C 140.29 69.75 135.65 69.96 131.02 69.76 C 127.00 69.75 123.56 66.05 123.68 62.06 C 123.55 48.69 123.67 35.33 123.62 21.96 C 123.31 18.24 125.48 14.17 129.30 13.30 M 131.33 20.37 C 131.50 34.27 131.40 48.19 131.38 62.10 C 141.94 62.66 152.45 61.39 163.00 61.74 C 227.00 61.73 291.00 61.74 355.00 61.73 C 363.87 61.51 372.74 62.92 381.60 61.85 C 381.53 48.02 381.44 34.19 381.64 20.36 C 354.76 20.59 327.88 20.39 301.00 20.46 C 244.45 20.40 187.88 20.59 131.33 20.37 M 152.78 69.78 C 152.80 79.93 152.80 90.08 152.78 100.23 C 221.93 100.21 291.09 100.17 360.24 100.25 C 359.69 90.11 360.12 79.94 359.98 69.79 C 290.91 69.78 221.84 69.81 152.78 69.78 M 168.02 108.02 C 167.99 206.67 167.99 305.33 168.02 403.98 C 174.00 404.02 179.99 404.02 185.98 403.98 C 186.01 305.33 186.01 206.67 185.98 108.02 C 179.99 107.98 174.00 107.98 168.02 108.02 M 193.02 108.02 C 192.99 206.67 192.99 305.33 193.02 403.98 C 201.67 404.01 210.33 404.02 218.98 403.98 C 219.01 305.33 219.01 206.67 218.98 108.02 C 210.33 107.98 201.67 107.98 193.02 108.02 M 227.02 108.02 C 226.99 207.01 226.99 306.00 227.02 404.99 C 235.67 405.02 244.33 405.02 252.98 404.99 C 253.01 306.00 253.01 207.01 252.98 108.02 C 244.33 107.98 235.67 107.98 227.02 108.02 M 260.02 108.02 C 259.98 206.00 260.00 303.99 260.01 401.98 C 259.63 403.80 261.22 405.32 263.03 404.98 C 270.97 404.99 278.91 405.11 286.85 404.84 C 287.15 398.22 286.95 391.61 287.00 385.00 C 286.99 292.67 287.02 200.34 286.98 108.01 C 277.99 107.98 269.00 107.98 260.02 108.02 M 294.02 108.02 C 293.99 206.67 293.99 305.33 294.02 403.98 C 302.67 404.02 311.33 404.02 319.98 403.98 C 320.01 305.33 320.01 206.67 319.98 108.02 C 311.33 107.98 302.67 107.98 294.02 108.02 M 327.02 108.02 C 326.99 206.67 326.99 305.33 327.02 403.98 C 332.67 404.02 338.33 404.02 343.99 403.98 C 344.01 305.33 344.01 206.67 343.98 108.02 C 338.33 107.97 332.67 107.97 327.02 108.02 M 152.80 412.00 C 152.79 422.33 152.79 432.66 152.80 443.00 C 221.87 443.01 290.94 442.99 360.01 443.01 C 359.99 432.67 360.00 422.33 360.01 411.99 C 290.94 412.01 221.87 411.99 152.80 412.00 M 131.35 450.37 C 131.49 464.17 131.47 477.98 131.36 491.78 C 214.77 491.68 298.19 491.72 381.60 491.75 C 381.47 477.96 381.43 464.17 381.62 450.38 C 356.08 450.61 330.54 450.43 305.00 450.49 C 247.12 450.41 189.23 450.63 131.35 450.37 Z" />
</g>
<g id="#e2e6e9ff">
<path fill="#e2e6e9" opacity="1.00" d=" M 131.33 20.37 C 187.88 20.59 244.45 20.40 301.00 20.46 C 327.88 20.39 354.76 20.59 381.64 20.36 C 381.44 34.19 381.53 48.02 381.60 61.85 C 372.74 62.92 363.87 61.51 355.00 61.73 C 291.00 61.74 227.00 61.73 163.00 61.74 C 152.45 61.39 141.94 62.66 131.38 62.10 C 131.40 48.19 131.50 34.27 131.33 20.37 Z" />
<path fill="#e2e6e9" opacity="1.00" d=" M 152.78 69.78 C 221.84 69.81 290.91 69.78 359.98 69.79 C 360.12 79.94 359.69 90.11 360.24 100.25 C 291.09 100.17 221.93 100.21 152.78 100.23 C 152.80 90.08 152.80 79.93 152.78 69.78 Z" />
<path fill="#e2e6e9" opacity="1.00" d=" M 152.80 412.00 C 221.87 411.99 290.94 412.01 360.01 411.99 C 360.00 422.33 359.99 432.67 360.01 443.01 C 290.94 442.99 221.87 443.01 152.80 443.00 C 152.79 432.66 152.79 422.33 152.80 412.00 Z" />
<path fill="#e2e6e9" opacity="1.00" d=" M 131.35 450.37 C 189.23 450.63 247.12 450.41 305.00 450.49 C 330.54 450.43 356.08 450.61 381.62 450.38 C 381.43 464.17 381.47 477.96 381.60 491.75 C 298.19 491.72 214.77 491.68 131.36 491.78 C 131.47 477.98 131.49 464.17 131.35 450.37 Z" />
</g>
<g id="#81868cff">
<path fill="#81868c" opacity="1.00" d=" M 168.02 108.02 C 174.00 107.98 179.99 107.98 185.98 108.02 C 186.01 206.67 186.01 305.33 185.98 403.98 C 179.99 404.02 174.00 404.02 168.02 403.98 C 167.99 305.33 167.99 206.67 168.02 108.02 Z" />
<path fill="#81868c" opacity="1.00" d=" M 193.02 108.02 C 201.67 107.98 210.33 107.98 218.98 108.02 C 219.01 206.67 219.01 305.33 218.98 403.98 C 210.33 404.02 201.67 404.01 193.02 403.98 C 192.99 305.33 192.99 206.67 193.02 108.02 Z" />
<path fill="#81868c" opacity="1.00" d=" M 227.02 108.02 C 235.67 107.98 244.33 107.98 252.98 108.02 C 253.01 207.01 253.01 306.00 252.98 404.99 C 244.33 405.02 235.67 405.02 227.02 404.99 C 226.99 306.00 226.99 207.01 227.02 108.02 Z" />
<path fill="#81868c" opacity="1.00" d=" M 260.02 108.02 C 269.00 107.98 277.99 107.98 286.98 108.01 C 287.02 200.34 286.99 292.67 287.00 385.00 C 286.95 391.61 287.15 398.22 286.85 404.84 C 278.91 405.11 270.97 404.99 263.03 404.98 C 261.22 405.32 259.63 403.80 260.01 401.98 C 260.00 303.99 259.98 206.00 260.02 108.02 Z" />
<path fill="#81868c" opacity="1.00" d=" M 294.02 108.02 C 302.67 107.98 311.33 107.98 319.98 108.02 C 320.01 206.67 320.01 305.33 319.98 403.98 C 311.33 404.02 302.67 404.02 294.02 403.98 C 293.99 305.33 293.99 206.67 294.02 108.02 Z" />
<path fill="#81868c" opacity="1.00" d=" M 327.02 108.02 C 332.67 107.97 338.33 107.97 343.98 108.02 C 344.01 206.67 344.01 305.33 343.99 403.98 C 338.33 404.02 332.67 404.02 327.02 403.98 C 326.99 305.33 326.99 206.67 327.02 108.02 Z" />
</g>
</svg>
