<?xml version="1.0" encoding="UTF-8" ?>
<!DOCTYPE svg PUBLIC "-//W3C//DTD SVG 1.1//EN" "http://www.w3.org/Graphics/SVG/1.1/DTD/svg11.dtd">
<svg width="512pt" height="512pt" viewBox="0 0 512 512" version="1.1" xmlns="http://www.w3.org/2000/svg">
<g id="#010101ff">
<path fill="#fff" opacity="1.00" d=" M 347.94 43.86 C 363.56 34.69 382.08 30.69 400.09 32.39 C 419.90 34.12 438.97 42.96 453.18 56.86 C 468.18 71.29 477.80 91.20 479.59 111.95 C 481.48 131.66 476.38 151.93 465.39 168.41 C 450.99 190.39 426.32 205.39 400.07 207.57 C 399.90 287.67 400.07 367.78 399.98 447.88 C 412.01 447.86 423.07 457.82 423.86 469.89 C 424.28 478.60 423.78 487.33 424.06 496.06 C 402.70 495.95 381.35 496.03 360.00 496.02 C 360.12 487.00 359.69 477.98 360.19 468.98 C 361.42 457.24 372.28 447.90 384.00 447.88 C 383.93 367.87 384.04 287.86 383.95 207.86 C 374.80 206.44 365.58 204.60 357.08 200.74 C 337.68 192.35 321.49 176.77 312.48 157.64 C 303.94 139.86 301.79 119.14 306.31 99.95 C 311.64 76.57 327.19 55.83 347.94 43.86 M 387.17 48.17 C 364.93 49.46 343.73 61.86 331.67 80.58 C 322.00 95.28 318.14 113.60 320.82 130.98 C 323.31 147.64 331.92 163.32 344.69 174.31 C 356.66 184.83 372.26 191.13 388.18 191.86 C 404.74 192.83 421.59 187.78 434.89 177.86 C 447.39 168.62 456.82 155.22 461.06 140.24 C 465.32 125.87 464.86 110.17 459.89 96.04 C 455.22 82.58 446.36 70.63 434.91 62.16 C 421.34 51.97 404.07 47.01 387.17 48.17 M 376.08 470.91 C 375.85 473.93 376.00 476.96 376.00 479.99 C 386.67 480.00 397.33 479.94 407.99 480.01 C 407.98 476.97 408.08 473.94 407.83 470.92 C 407.62 467.02 403.90 463.84 400.04 464.02 C 394.68 464.05 389.33 463.92 383.98 464.01 C 380.08 463.84 376.36 467.00 376.08 470.91 Z" />
<path fill="#fff" opacity="1.00" d=" M 364.00 80.00 C 377.36 79.97 390.71 79.98 404.07 79.98 C 412.82 79.92 421.17 85.15 425.23 92.86 C 428.78 99.32 428.08 106.98 427.88 114.08 C 427.05 125.73 416.65 135.64 404.99 135.97 C 396.67 136.06 388.34 135.96 380.02 136.02 C 379.95 146.67 380.07 157.32 379.97 167.98 C 374.65 168.03 369.32 168.06 364.00 167.97 C 363.96 138.65 363.97 109.32 364.00 80.00 M 380.02 96.02 C 380.04 103.99 379.92 111.97 380.04 119.95 C 388.05 120.03 396.05 120.01 404.06 119.94 C 407.93 120.10 411.61 116.91 411.87 113.03 C 412.04 109.65 412.06 106.25 411.87 102.88 C 411.56 99.04 407.95 95.87 404.10 96.07 C 396.07 95.86 388.05 96.08 380.02 96.02 Z" />
<path fill="#fff" opacity="1.00" d=" M 39.95 198.01 C 49.15 194.20 59.03 192.04 68.99 191.78 C 107.01 191.78 145.03 191.77 183.06 191.78 C 193.39 191.67 203.92 191.53 213.93 194.46 C 238.18 200.80 258.39 219.70 267.13 243.08 C 277.12 243.14 287.10 243.01 297.08 243.13 C 307.25 243.43 316.77 249.82 321.29 258.87 C 325.18 266.27 324.35 274.88 324.23 282.95 C 323.91 292.57 314.98 300.47 305.46 300.23 C 311.21 310.82 314.17 322.90 314.07 334.96 C 314.09 354.97 314.12 374.98 314.06 395.00 C 314.09 406.23 309.96 417.35 302.79 425.97 C 295.39 434.98 284.69 441.18 273.20 443.16 C 273.10 454.77 273.27 466.38 273.13 478.00 C 273.14 487.19 265.15 495.43 255.96 495.73 C 248.63 495.84 241.29 495.81 233.96 495.75 C 224.66 495.71 216.34 487.37 216.33 478.07 C 216.22 466.66 216.35 455.24 216.28 443.83 C 158.95 443.83 101.63 443.96 44.30 443.93 C 44.31 438.62 44.29 433.31 44.31 428.00 C 114.54 427.81 184.77 427.90 255.00 427.77 C 261.98 427.72 269.19 428.41 275.88 425.98 C 286.01 422.70 293.79 414.05 296.93 403.99 C 288.12 411.51 276.62 415.78 265.03 415.76 C 191.45 415.80 117.87 415.88 44.29 415.92 C 44.32 410.60 44.32 405.28 44.31 399.97 C 118.22 399.77 192.14 399.87 266.06 399.72 C 281.80 399.66 296.11 386.66 297.80 371.04 C 298.39 363.37 297.96 355.66 298.09 347.98 C 297.91 339.48 298.75 330.84 296.78 322.48 C 293.72 307.90 284.47 294.79 271.88 286.86 L 271.14 286.73 C 262.72 289.05 254.66 292.76 245.98 294.13 C 239.38 295.27 232.66 294.92 226.00 295.07 C 165.42 295.29 104.83 295.78 44.25 295.92 C 44.38 290.62 44.29 285.32 44.27 280.02 C 108.21 279.58 172.15 279.37 236.09 278.97 C 243.39 278.88 250.52 276.94 257.27 274.27 C 257.50 259.07 252.93 243.68 243.29 231.79 C 231.59 216.85 212.88 207.77 193.91 207.82 C 152.63 207.75 111.36 207.79 70.09 207.80 C 61.82 207.75 53.74 209.81 46.06 212.70 C 44.24 207.72 42.00 202.90 39.95 198.01 M 271.40 259.07 C 271.71 261.66 272.01 264.26 272.28 266.87 C 278.70 272.08 285.79 276.49 291.75 282.26 C 292.71 283.02 293.59 284.28 295.00 284.09 C 298.97 284.14 302.97 284.28 306.94 283.98 C 307.23 283.74 307.82 283.25 308.11 283.00 C 308.47 278.69 308.38 274.34 308.15 270.02 C 307.70 263.96 302.05 259.06 296.03 259.12 C 287.82 258.98 279.61 259.22 271.40 259.07 M 232.28 443.87 C 232.34 454.92 232.26 465.98 232.31 477.03 C 232.01 478.63 233.32 480.05 234.96 479.76 C 241.63 479.72 248.32 479.89 254.99 479.73 C 256.49 479.86 257.34 478.44 257.14 477.08 C 257.22 465.99 257.14 454.89 257.17 443.80 C 248.87 443.81 240.57 443.74 232.28 443.87 Z" />
<path fill="#fff" opacity="1.00" d=" M 44.31 319.97 C 89.53 319.78 134.75 319.85 179.97 319.73 C 184.84 319.36 189.17 324.24 188.16 329.04 C 185.62 342.21 182.93 355.36 180.32 368.52 C 179.86 372.58 176.20 375.96 172.05 375.73 C 129.46 375.83 86.87 375.86 44.29 375.92 C 44.32 370.60 44.32 365.29 44.30 359.98 C 84.78 359.79 125.27 359.82 165.75 359.76 C 167.28 351.74 169.00 343.76 170.56 335.75 C 128.47 335.81 86.37 335.88 44.28 335.91 C 44.33 330.59 44.31 325.28 44.31 319.97 Z" />
<path fill="#fff" opacity="1.00" d=" M 239.45 320.52 C 253.88 317.47 269.27 327.60 272.39 341.95 C 276.50 357.10 265.49 373.92 250.11 376.56 C 234.93 379.97 218.74 368.40 216.68 353.07 C 213.89 338.38 224.82 323.09 239.45 320.52 M 241.44 336.50 C 235.92 337.82 231.99 343.37 232.34 349.00 C 232.24 356.08 239.16 361.96 246.11 361.02 C 253.27 360.48 258.66 352.85 256.89 345.91 C 255.70 339.04 248.09 334.50 241.44 336.50 Z" />
</g>
</svg>
