<?xml version="1.0" encoding="UTF-8" ?>
<!DOCTYPE svg PUBLIC "-//W3C//DTD SVG 1.1//EN" "http://www.w3.org/Graphics/SVG/1.1/DTD/svg11.dtd">
<svg width="220pt" height="220pt" viewBox="0 0 220 220" version="1.1" xmlns="http://www.w3.org/2000/svg">
<g id="#000000ff">
<path fill="#fff" opacity="1.00" d=" M 72.16 46.47 C 86.78 46.43 101.39 46.47 116.01 46.45 C 123.34 46.55 130.90 45.81 137.95 48.35 C 156.94 54.54 169.29 75.45 166.42 95.08 C 164.05 114.57 146.66 130.90 127.05 131.97 C 116.91 132.34 106.76 132.04 96.61 132.12 C 96.59 145.97 96.59 159.82 96.61 173.67 C 88.47 173.68 80.32 173.68 72.17 173.67 C 72.20 131.27 72.22 88.87 72.16 46.47 M 97.12 69.92 C 97.02 82.78 97.20 95.64 97.03 108.49 C 106.04 108.60 115.05 108.51 124.06 108.55 C 132.21 108.57 140.05 102.83 141.92 94.79 C 145.23 83.92 137.09 70.92 125.49 70.22 C 116.06 69.54 106.58 70.10 97.12 69.92 Z" />
</g>
</svg>
