<?xml version="1.0" encoding="UTF-8" ?>
<!DOCTYPE svg PUBLIC "-//W3C//DTD SVG 1.1//EN" "http://www.w3.org/Graphics/SVG/1.1/DTD/svg11.dtd">
<svg width="220pt" height="220pt" viewBox="0 0 220 220" version="1.1" xmlns="http://www.w3.org/2000/svg">
<g id="#000000ff">
<path fill="#fff" opacity="1.00" d=" M 93.32 1.34 C 108.78 -0.68 124.76 -0.11 139.79 4.24 C 167.25 11.89 191.21 30.91 205.18 55.72 C 216.05 74.80 220.80 97.24 218.87 119.10 C 216.98 142.71 207.02 165.55 191.09 183.06 C 175.25 200.68 153.56 212.94 130.25 217.26 C 107.52 221.49 83.41 218.59 62.55 208.52 C 37.66 196.70 17.55 175.12 7.65 149.39 C -0.34 129.01 -1.74 106.22 3.03 84.90 C 8.61 60.17 23.27 37.72 43.45 22.42 C 57.92 11.31 75.27 3.99 93.32 1.34 M 61.04 40.14 C 64.00 43.96 67.71 47.09 71.09 50.52 C 71.63 49.01 71.80 47.41 72.09 45.84 C 89.71 45.59 107.34 45.79 124.97 45.74 C 134.87 45.63 144.78 49.17 152.18 55.78 C 163.16 65.28 168.94 80.44 166.92 94.83 C 165.62 104.36 161.02 113.40 153.96 119.94 C 151.80 122.16 149.03 123.68 146.94 125.96 C 147.42 127.09 148.39 127.90 149.21 128.79 C 157.77 137.22 166.26 145.74 174.72 154.27 C 176.15 155.47 177.22 157.39 179.06 157.93 C 181.71 155.50 183.13 152.04 184.90 148.96 C 195.49 129.11 197.58 104.95 190.49 83.58 C 184.70 65.54 172.62 49.61 156.85 39.12 C 140.37 27.96 119.82 22.91 100.06 25.33 C 86.06 26.87 72.65 32.23 61.04 40.14 M 41.19 59.66 C 26.30 79.93 21.15 106.92 27.71 131.22 C 32.82 150.89 45.41 168.41 62.19 179.81 C 74.22 188.09 88.46 193.05 103.00 194.22 C 123.20 195.90 143.94 189.97 160.16 177.80 C 122.03 139.29 83.41 101.25 45.29 62.72 C 44.13 61.45 42.76 60.38 41.19 59.66 M 97.06 70.00 C 97.04 72.01 96.89 74.01 96.55 75.99 C 107.03 86.69 117.80 97.09 128.21 107.85 C 130.98 106.91 133.79 105.93 136.04 104.00 C 140.46 100.72 142.22 95.14 142.98 89.92 C 143.06 80.78 136.32 71.33 126.95 70.06 C 116.99 69.89 107.02 70.05 97.06 70.00 Z" />
<path fill="#fff" opacity="1.00" d=" M 72.02 91.09 C 74.03 92.69 75.88 94.48 77.67 96.33 C 89.32 108.25 101.46 119.71 112.87 131.87 C 107.52 132.11 102.16 131.95 96.81 132.02 C 96.63 145.93 96.78 159.84 96.74 173.75 C 88.47 173.74 80.19 173.72 71.92 173.76 C 71.47 149.19 71.89 124.59 71.71 100.01 C 71.68 97.03 71.75 94.05 72.02 91.09 Z" />
</g>
</svg>
