<?xml version="1.0" encoding="UTF-8" ?>
<!DOCTYPE svg PUBLIC "-//W3C//DTD SVG 1.1//EN" "http://www.w3.org/Graphics/SVG/1.1/DTD/svg11.dtd">
<svg width="104pt" height="185pt" viewBox="0 0 104 185" version="1.1" xmlns="http://www.w3.org/2000/svg">
<g id="#010100ff">
<path fill="#333" opacity="1.00" d=" M 23.18 6.18 C 41.09 -0.33 61.30 -0.31 79.34 5.74 C 90.20 9.50 101.26 17.02 104.00 28.87 L 104.00 185.00 L 0.00 185.00 L 0.00 28.17 C 2.73 17.08 13.07 10.01 23.18 6.18 M 38.87 17.81 C 30.03 19.61 20.48 22.75 15.00 30.40 C 14.74 33.27 14.69 36.15 14.76 39.02 C 14.76 82.73 14.75 126.44 14.76 170.14 C 39.50 170.15 64.25 170.16 88.99 170.14 C 89.00 123.58 89.02 77.01 88.98 30.45 C 86.49 27.75 84.02 24.93 80.66 23.29 C 67.99 16.48 52.86 15.43 38.87 17.81 Z" />
</g>
</svg>
