<?xml version="1.0" encoding="UTF-8" ?>
<!DOCTYPE svg PUBLIC "-//W3C//DTD SVG 1.1//EN" "http://www.w3.org/Graphics/SVG/1.1/DTD/svg11.dtd">
<svg width="473pt" height="185pt" viewBox="0 0 473 185" version="1.1" xmlns="http://www.w3.org/2000/svg">
<g id="#010101ff">
<path fill="#010101" opacity="1.00" d=" M 22.41 6.47 C 39.78 -0.11 59.39 -0.31 77.12 5.00 C 87.16 8.18 97.40 13.91 102.18 23.72 C 104.60 28.11 103.96 33.22 104.00 38.02 C 104.00 87.01 104.00 136.01 104.00 185.00 L 0.00 185.00 L 0.00 28.19 C 2.63 17.37 12.59 10.35 22.41 6.47 M 38.85 17.81 C 30.00 19.61 20.50 22.77 14.98 30.40 C 14.56 35.59 14.84 40.80 14.76 46.00 C 14.75 87.38 14.76 128.76 14.76 170.15 C 39.50 170.15 64.25 170.16 88.99 170.14 C 89.00 123.58 89.02 77.02 88.99 30.46 C 86.37 27.55 83.64 24.63 80.04 22.94 C 67.47 16.46 52.62 15.46 38.85 17.81 Z" />
<path fill="#010101" opacity="1.00" d=" M 116.51 32.10 C 116.53 28.81 119.89 26.65 122.97 27.11 C 235.33 27.14 347.69 27.10 460.04 27.13 C 465.73 26.80 470.97 30.50 473.00 35.75 L 473.00 76.90 C 471.73 79.75 469.82 82.45 467.01 83.94 C 463.36 86.03 459.01 85.53 454.98 85.60 C 344.31 85.58 233.63 85.58 122.96 85.60 C 120.43 85.87 117.81 84.70 116.77 82.30 C 116.21 79.94 116.34 77.49 116.51 75.09 C 116.59 72.33 119.22 70.00 121.98 70.24 C 131.02 70.19 140.05 70.24 149.09 70.19 C 143.27 61.58 137.24 53.11 131.39 44.51 C 128.56 39.72 121.62 44.77 118.02 40.98 C 115.63 38.72 116.55 35.02 116.51 32.10 M 148.41 42.50 C 155.02 51.65 161.27 61.05 167.88 70.20 C 179.15 70.31 190.42 70.47 201.69 70.50 C 196.13 62.06 190.17 53.88 184.51 45.50 C 183.36 44.00 182.36 41.59 180.02 42.17 C 169.49 42.42 158.92 41.79 148.41 42.50 M 200.63 42.28 C 206.92 51.68 213.58 60.83 220.02 70.13 C 231.30 70.37 242.58 70.48 253.86 70.45 C 248.26 61.72 242.08 53.37 236.27 44.77 C 235.39 43.81 234.73 42.02 233.14 42.22 C 222.31 42.21 211.46 42.12 200.63 42.28 M 253.27 42.32 C 259.05 50.98 265.18 59.42 271.03 68.03 C 271.77 69.04 272.47 70.53 274.02 70.21 C 284.86 70.33 295.72 70.46 306.56 70.50 C 300.09 60.99 293.61 51.46 286.84 42.15 C 275.65 42.33 264.46 42.02 253.27 42.32 M 305.50 42.26 C 311.77 51.68 318.42 60.85 324.85 70.16 C 336.15 70.35 347.45 70.48 358.76 70.47 C 352.90 61.66 346.71 53.08 340.76 44.34 C 339.99 43.52 339.41 41.96 338.02 42.21 C 327.18 42.21 316.34 42.14 305.50 42.26 M 410.33 42.43 C 416.34 50.91 422.21 59.51 428.13 68.07 C 428.87 68.95 429.50 70.50 430.95 70.22 C 440.04 70.25 449.13 70.20 458.22 70.21 C 458.23 60.98 458.22 51.76 458.24 42.53 C 442.27 42.32 426.30 42.63 410.33 42.43 M 358.01 42.45 C 364.36 51.70 370.85 60.85 377.17 70.12 C 388.44 70.34 399.71 70.13 410.98 70.23 C 404.62 60.97 398.16 51.78 391.79 42.53 C 380.53 42.41 369.27 42.57 358.01 42.45 Z" />
</g>
</svg>
