<?xml version="1.0" encoding="UTF-8" ?>
<!DOCTYPE svg PUBLIC "-//W3C//DTD SVG 1.1//EN" "http://www.w3.org/Graphics/SVG/1.1/DTD/svg11.dtd">
<svg width="357pt" height="59pt" viewBox="0 0 357 59" version="1.1" xmlns="http://www.w3.org/2000/svg">
<g id="#010101ff">
<path fill="#333" opacity="1.00" d=" M 4.71 0.00 L 344.55 0.00 C 350.07 0.12 355.09 3.64 357.00 8.83 L 357.00 51.17 L 356.99 49.99 C 354.72 56.15 348.22 59.15 341.95 59.00 L 10.17 59.00 C 6.80 58.85 2.06 58.86 0.67 55.04 C 0.29 52.70 0.33 50.31 0.53 47.95 C 0.67 45.25 3.28 43.00 5.97 43.24 C 15.02 43.20 24.06 43.23 33.11 43.20 C 26.72 33.92 20.36 24.61 13.83 15.44 C 10.57 15.37 7.31 15.63 4.06 15.27 C 1.92 14.49 0.24 12.39 0.46 10.04 C 0.03 6.22 0.27 1.29 4.71 0.00 M 32.42 15.32 C 38.82 24.65 45.31 33.91 51.81 43.17 C 63.10 43.35 74.39 43.45 85.69 43.50 C 79.86 34.67 73.65 26.11 67.71 17.36 C 66.93 16.54 66.37 14.93 64.97 15.20 C 54.12 15.27 43.26 15.05 32.42 15.32 M 84.62 15.29 C 90.93 24.68 97.58 33.84 104.02 43.13 C 115.32 43.32 126.64 43.59 137.94 43.37 C 131.37 33.96 125.12 24.29 118.15 15.17 C 106.98 15.29 95.80 15.07 84.62 15.29 M 137.28 15.30 C 143.45 24.67 150.18 33.67 156.34 43.04 C 167.74 43.51 179.16 43.36 190.56 43.50 C 184.10 33.99 177.61 24.47 170.85 15.16 C 159.66 15.32 148.47 15.04 137.28 15.30 M 189.48 15.27 C 195.79 24.67 202.41 33.85 208.85 43.16 C 220.15 43.35 231.45 43.48 242.75 43.47 C 236.89 34.63 230.67 26.03 224.70 17.26 C 223.95 16.48 223.40 14.94 222.06 15.21 C 211.20 15.22 200.34 15.12 189.48 15.27 M 294.33 15.43 C 300.34 23.91 306.20 32.50 312.12 41.05 C 312.86 41.94 313.47 43.49 314.92 43.22 C 324.02 43.24 333.12 43.21 342.22 43.21 C 342.23 33.98 342.23 24.75 342.23 15.52 C 326.27 15.34 310.30 15.62 294.33 15.43 M 242.01 15.46 C 248.40 24.71 254.84 33.92 261.24 43.16 C 272.48 43.29 283.73 43.17 294.97 43.22 C 288.58 33.96 282.17 24.72 275.73 15.49 C 264.49 15.47 253.25 15.54 242.01 15.46 Z" />
</g>
</svg>
